# xmcd
#
# Track frame offsets: 
#        150
#        14678
#        27593
#        46416
#        62383
#        74110
#        83769
#        94415
#        109685
#        131519
#        150533
#        161783
#
# Disc length: 2308 seconds
#
# Revision: 0
# Processed by: cddbd v1.5.2PL0 Copyright (c) Steve Scherf et al.
# Submitted via: ExactAudioCopy v0.99pb4
#
DISCID=a309020c
DTITLE=Various Artist - Open Country (disk 1)
DYEAR=2007
DGENRE=Country
TTITLE0=Glen Campbell - Rhinestone Cowboy
TTITLE1=Willie Nelson - Crazy
TTITLE2=Juice Newton - Angel of the Morning
TTITLE3=Kenny Rogers - The Gambler
TTITLE4=Crystal Gayle - Don't It Make my Brown Eyes Blue
TTITLE5=George Jones - The Race is On
TTITLE6=Linda Ronstadt - Silver Threads and Golden Needles
TTITLE7=Jessi Colter - I'm Not Lisa
TTITLE8=The Nitty Gritty Dirt Band - Tennessee Stud
TTITLE9=Bobby Gentry - Ode to Billy Joe
TTITLE10=Freddie Hart - Easy Loving
TTITLE11=Jonny James - Young Love
EXTD=
EXTT0=
EXTT1=
EXTT2=
EXTT3=
EXTT4=
EXTT5=
EXTT6=
EXTT7=
EXTT8=
EXTT9=
EXTT10=
EXTT11=
PLAYORDER=
